<svg width="145" height="145" viewBox="0 0 145 145" fill="none" xmlns="http://www.w3.org/2000/svg">
<rect width="145" height="145" fill="white"/>
<path d="M73 72.5C77.6981 72.5 82.2038 70.6299 85.5259 67.3011C88.848 63.9724 90.7143 59.4576 90.7143 54.75C90.7143 50.0424 88.848 45.5276 85.5259 42.1989C82.2038 38.8701 77.6981 37 73 37C68.3019 37 63.7962 38.8701 60.4741 42.1989C57.152 45.5276 55.2857 50.0424 55.2857 54.75C55.2857 59.4576 57.152 63.9724 60.4741 67.3011C63.7962 70.6299 68.3019 72.5 73 72.5ZM66.6754 79.1562C53.0438 79.1562 42 90.2223 42 103.881C42 106.156 43.8406 108 46.1103 108H99.8897C102.159 108 104 106.156 104 103.881C104 90.2223 92.9563 79.1562 79.3246 79.1562H66.6754Z" fill="#0160BE"/>
</svg>
